<?xml version="1.0" encoding="utf-8"?>
<svg version="1.1" id="Layer_1" x="0px" y="0px" viewBox="0 0 370.48 82.77" style="enable-background:new 0 0 370.48 82.77;" xmlns="http://www.w3.org/2000/svg">
  <style type="text/css">
	.st0{fill:none;}
	.st1{fill:#0D2E4E;}
	.st2{fill:#FFFFFF;stroke:#0D2E4E;stroke-width:2;stroke-miterlimit:10;}
</style>
  <g>
    <path class="st0" d="M163.67,37.13c-4.83,0-8.4,3.75-8.4,9.67c0,5.92,3.31,9.86,8.33,9.86c4.83,0,8.21-4.01,8.21-9.92 S168.51,37.13,163.67,37.13z"/>
    <path class="st0" d="M300.08,36.62c-4.01,0-6.54,2.65-7.33,5.5c-0.19,0.68,0.31,1.37,1.02,1.37l12.76,0c0.65,0,1.17-0.59,1.05-1.22 C307,39.16,304.59,36.62,300.08,36.62z"/>
    <path class="st0" d="M199.92,37.13c-4.83,0-8.4,3.75-8.4,9.67c0,5.92,3.31,9.86,8.33,9.86c4.83,0,8.2-4.01,8.2-9.92 S204.76,37.13,199.92,37.13z"/>
    <path class="st0" d="M126.45,28.21c-0.34-0.92-1.64-0.92-1.98,0l-5.35,14.36c-0.26,0.69,0.25,1.43,0.99,1.43h10.69 c0.74,0,1.25-0.74,0.99-1.43L126.45,28.21z"/>
    <path class="st1" d="M130.3,17.96c-0.16-0.41-0.55-0.67-0.99-0.67h-7.39c-0.44,0-0.83,0.27-0.99,0.67L104.2,60.94 c-0.27,0.69,0.24,1.44,0.99,1.44h5.79c0.44,0,0.84-0.28,0.99-0.69l3.69-9.94c0.15-0.41,0.55-0.69,0.99-0.69h17.61 c0.44,0,0.83,0.27,0.99,0.68l3.75,9.95c0.16,0.41,0.55,0.68,0.99,0.68h6.05c0.74,0,1.26-0.75,0.99-1.44L130.3,17.96z M130.8,44 h-10.69c-0.74,0-1.25-0.74-0.99-1.43l5.35-14.36c0.34-0.92,1.64-0.92,1.98,0l5.35,14.36C132.05,43.26,131.54,44,130.8,44z"/>
    <path class="st1" d="M178.94,17.39c0-0.58-0.47-1.06-1.06-1.06h-5.07c-0.58,0-1.06,0.47-1.06,1.06l0,14.7 c0,0.9-1.05,1.35-1.74,0.77c-1.5-1.26-3.88-2.28-7.35-2.28c-8.71,0-14.75,7.31-14.75,16.22c0,9.35,5.98,16.34,14.88,16.34 c3.16,0,5.72-1.12,7.45-2.72c0.65-0.6,1.71-0.23,1.8,0.65c0.01,0.12,0.02,0.25,0.04,0.36c0.06,0.54,0.51,0.94,1.05,0.94l4.96,0 c0.62,0,1.11-0.53,1.05-1.14c-0.09-1.06-0.2-2.69-0.2-4.52V17.39z M163.61,56.65c-5.02,0-8.33-3.94-8.33-9.86 c0-5.91,3.56-9.67,8.4-9.67c4.83,0,8.14,3.69,8.14,9.6S168.44,56.65,163.61,56.65z"/>
    <path class="st1" d="M215.19,17.39c0-0.58-0.47-1.06-1.06-1.06h-5.07c-0.58,0-1.06,0.47-1.06,1.06l0,14.7 c0,0.91-1.05,1.35-1.74,0.77c-1.5-1.26-3.88-2.28-7.35-2.28c-8.71,0-14.75,7.31-14.75,16.22c0,9.35,5.98,16.34,14.88,16.34 c3.16,0,5.72-1.12,7.45-2.72c0.65-0.6,1.71-0.23,1.8,0.65c0.01,0.12,0.02,0.25,0.04,0.36c0.06,0.54,0.51,0.94,1.05,0.94l4.96,0 c0.62,0,1.11-0.53,1.05-1.14c-0.09-1.06-0.2-2.69-0.2-4.52V17.39z M199.86,56.65c-5.02,0-8.33-3.94-8.33-9.86 c0-5.91,3.56-9.67,8.4-9.67c4.83,0,8.14,3.69,8.14,9.6S204.69,56.65,199.86,56.65z"/>
    <path class="st1" d="M250.25,55.25h-18.11c-0.58,0-1.06-0.47-1.06-1.06v-9.84c0-0.58,0.47-1.06,1.06-1.06h16.2 c0.58,0,1.06-0.47,1.06-1.06v-4.82c0-0.58-0.47-1.06-1.06-1.06h-16.2c-0.58,0-1.06-0.47-1.06-1.06v-9.84 c0-0.58,0.47-1.06,1.06-1.06h15.6c1,0,1.67-1.01,1.29-1.93l-1.78-4.32c-0.22-0.52-0.73-0.87-1.29-0.87h-21.46 c-0.58,0-1.06,0.47-1.06,1.06v42.98c0,0.58,0.47,1.06,1.06,1.06h25.74c0.58,0,1.06-0.47,1.06-1.06v-5.01 C251.31,55.73,250.83,55.25,250.25,55.25z"/>
    <path class="st1" d="M283.4,31.4h-5.47c-0.45,0-0.84,0.28-0.99,0.7l-6.78,18.72c-0.34,0.93-1.64,0.93-1.99,0.01l-6.94-18.74 c-0.15-0.41-0.55-0.69-0.99-0.69h-5.83c-0.75,0-1.26,0.76-0.98,1.46l11.73,28.86c0.16,0.4,0.55,0.66,0.98,0.66h5.94 c0.44,0,0.83-0.27,0.98-0.67l11.32-28.86C284.66,32.15,284.14,31.4,283.4,31.4z"/>
    <path class="st1" d="M300.02,30.45c-7.82,0-15.07,6.49-15.07,16.28c0,10.49,7.44,16.6,15.84,16.6c6.93,0,11.66-3.81,13.61-8.71 c0.23-0.58-0.07-1.23-0.66-1.42l-4.25-1.34c-0.51-0.16-1.06,0.09-1.28,0.58c-1.15,2.62-3.41,4.53-7.42,4.53 c-4.17,0-7.6-2.79-8.32-6.84c-0.12-0.64,0.4-1.24,1.05-1.24l20.54,0c0.55,0,1.01-0.43,1.06-0.98c0.03-0.39,0.05-0.87,0.05-1.37 C315.16,36.75,309.56,30.45,300.02,30.45z M306.53,43.49l-12.76,0c-0.71,0-1.2-0.68-1.02-1.37c0.78-2.85,3.32-5.5,7.33-5.5 c4.51,0,6.92,2.54,7.5,5.64C307.7,42.9,307.18,43.49,306.53,43.49z"/>
    <path class="st1" d="M336.52,30.51c-2.58,0-5.29,0.82-7.35,2.74c-0.69,0.64-1.81,0.2-1.81-0.75v-0.04c0-0.58-0.47-1.06-1.06-1.06 h-5.07c-0.58,0-1.06,0.47-1.06,1.06v28.86c0,0.58,0.47,1.06,1.06,1.06h5.26c0.58,0,1.06-0.47,1.06-1.06V44.51 c0-4.07,2.23-7.31,6.42-7.31c4.64,0,6.36,3.05,6.36,6.87v17.26c0,0.58,0.47,1.06,1.06,1.06h5.26c0.58,0,1.06-0.47,1.06-1.06V42.79 C347.72,35.98,344.09,30.51,336.52,30.51z"/>
    <path class="st1" d="M369.31,56.12c-0.43,0.05-0.92,0.09-1.38,0.09c-2.73,0-3.94-1.15-3.94-3.88V39.01c0-0.58,0.47-1.06,1.06-1.06 h4.31c0.58,0,1.06-0.47,1.06-1.06v-4.44c0-0.58-0.47-1.06-1.06-1.06h-4.31c-0.58,0-1.06-0.47-1.06-1.06v-7.36 c0-0.58-0.47-1.06-1.06-1.06h-4.56c-0.58,0-1.06,0.47-1.06,1.06v2.68v0.9v3.79c0,0.58-0.47,1.06-1.06,1.06h-4.34 c-0.54,0.05-0.97,0.49-0.97,1.04v4.44c0,0.58,0.47,1.06,1.06,1.06h3.61c0.58,0,1.06,0.47,1.06,1.06v14.52 c0,5.79,3.56,9.22,9.29,9.22c1.78,0,3-0.23,3.74-0.43c0.46-0.13,0.77-0.54,0.77-1.02v-4.12C370.48,56.55,369.94,56.05,369.31,56.12 z"/>
  </g>
  <g>
    <g>
      <g>
        <path class="cls-1" d="M 42.907 36.384 L 29.764 61.844 C 29.294 62.757 28.343 63.333 27.303 63.33 L 18.352 63.33 C 16.606 63.337 15.474 61.513 16.278 59.985 L 29.422 34.526 C 29.891 33.611 30.843 33.036 31.883 33.039 L 40.833 33.039 C 42.579 33.034 43.709 34.856 42.907 36.384 Z" style="fill: rgb(17, 94, 248);"/>
        <path class="cls-1" d="M 66.797 44.363 L 53.108 17.933 C 52.468 16.689 51.17 15.907 49.756 15.91 L 41.084 15.91 C 39.48 15.913 38.441 17.582 39.167 18.994 L 46.406 33.043 L 46.406 33.043 L 53.828 47.44 C 54.609 48.954 53.491 50.747 51.768 50.747 L 41.187 50.747 C 39.79 50.747 38.659 51.863 38.659 53.238 C 38.657 53.595 38.735 53.947 38.886 54.27 L 42.381 61.85 C 42.794 62.741 43.695 63.312 44.688 63.313 L 55.023 63.313 C 64.899 63.313 71.288 53.03 66.801 44.36 Z" style="fill: rgb(17, 94, 248);"/>
      </g>
    </g>
  </g>
</svg>